<svg width="12" height="12" viewBox="0 0 12 12" fill="none" xmlns="http://www.w3.org/2000/svg">
<path d="M10.7731 3.96984C10.6324 3.82923 10.4417 3.75025 10.2428 3.75025C10.044 3.75025 9.85323 3.82923 9.71259 3.96984L6.00009 7.68234L2.28759 3.96984C2.14613 3.83322 1.95668 3.75762 1.76003 3.75933C1.56339 3.76104 1.37528 3.83992 1.23622 3.97897C1.09717 4.11803 1.01829 4.30614 1.01658 4.50279C1.01487 4.69943 1.09047 4.88888 1.22709 5.03034L5.46984 9.27309C5.61048 9.41369 5.80121 9.49268 6.00009 9.49268C6.19896 9.49268 6.38969 9.41369 6.53034 9.27309L10.7731 5.03034C10.9137 4.88969 10.9927 4.69896 10.9927 4.50009C10.9927 4.30121 10.9137 4.11048 10.7731 3.96984Z" fill="#6A4C4C"/>
</svg>
