<svg width="127" height="115" viewBox="0 0 127 115" fill="none" xmlns="http://www.w3.org/2000/svg">
<g opacity="0.4">
<path fill-rule="evenodd" clip-rule="evenodd" d="M20.5974 41.6078L66.3239 14.5361L105.466 37.7095C107.466 38.8934 109.129 40.6045 110.285 42.669C111.442 44.7336 112.051 47.0783 112.05 49.4653V81.1256C112.051 83.5126 111.442 85.8573 110.285 87.9219C109.129 89.9865 107.466 91.6975 105.466 92.8815L72.8039 112.217C70.8303 113.385 68.5968 114 66.3239 114C64.051 114 61.8174 113.385 59.8438 112.217L27.182 92.8815C25.1815 91.6975 23.5187 89.9865 22.3623 87.9219C21.2059 85.8573 20.597 83.5126 20.5974 81.1256V62.1619" fill="#E7BD84"/>
<path d="M20.5974 41.6078L66.3239 14.5361L105.466 37.7095C107.466 38.8934 109.129 40.6045 110.285 42.669C111.442 44.7336 112.051 47.0783 112.05 49.4653V81.1256C112.051 83.5126 111.442 85.8573 110.285 87.9219C109.129 89.9865 107.466 91.6975 105.466 92.8815L72.8039 112.217C70.8303 113.385 68.5968 114 66.3239 114C64.051 114 61.8174 113.385 59.8438 112.217L27.182 92.8815C25.1815 91.6975 23.5187 89.9865 22.3623 87.9219C21.2059 85.8573 20.597 83.5126 20.5974 81.1256V62.1619" stroke="#AF916A" stroke-width="2" stroke-linecap="round" stroke-linejoin="round"/>
<path fill-rule="evenodd" clip-rule="evenodd" d="M60.1309 65.2282C62.0342 66.2898 64.162 66.8454 66.3235 66.8454C68.4851 66.8454 70.6129 66.2898 72.5162 65.2282L108.784 44.9922M66.3235 68.6799V112.671V68.6799Z" fill="#E7BD84"/>
<path d="M60.1309 65.2282C62.0342 66.2898 64.162 66.8454 66.3235 66.8454C68.4851 66.8454 70.6129 66.2898 72.5162 65.2282L108.784 44.9922M66.3235 68.6799V112.671" stroke="#AF916A" stroke-width="2" stroke-linecap="round" stroke-linejoin="round"/>
<path fill-rule="evenodd" clip-rule="evenodd" d="M20.597 41.6075L66.3235 68.6791L46.7264 75.447L1 48.3754L20.597 41.6075ZM66.3235 14.5358L112.05 41.6075L125.115 28.0716L79.3882 1L66.3235 14.5358Z" fill="#E7BD84" stroke="#AF916A" stroke-width="2" stroke-linecap="round" stroke-linejoin="round"/>
</g>
</svg>
