<svg width="45" height="45" viewBox="0 0 45 45" fill="none" xmlns="http://www.w3.org/2000/svg">
<rect width="45" height="45" rx="22.5" fill="#EAD7BE"/>
<path d="M34 23V31.5556C34 32.2039 33.7308 32.8256 33.2515 33.284C32.7722 33.7425 32.1222 34 31.4444 34H13.5556C12.8778 34 12.2278 33.7425 11.7485 33.284C11.2692 32.8256 11 32.2039 11 31.5556V23H34ZM27.6111 12C27.95 12 28.275 12.1288 28.5146 12.358C28.7543 12.5872 28.8889 12.8981 28.8889 13.2222V14.4444H31.4444C32.1222 14.4444 32.7722 14.702 33.2515 15.1604C33.7308 15.6188 34 16.2406 34 16.8889V20.5556H11V16.8889C11 16.2406 11.2692 15.6188 11.7485 15.1604C12.2278 14.702 12.8778 14.4444 13.5556 14.4444H16.1111V13.2222C16.1111 12.8981 16.2457 12.5872 16.4854 12.358C16.725 12.1288 17.05 12 17.3889 12C17.7278 12 18.0528 12.1288 18.2924 12.358C18.532 12.5872 18.6667 12.8981 18.6667 13.2222V14.4444H26.3333V13.2222C26.3333 12.8981 26.468 12.5872 26.7076 12.358C26.9472 12.1288 27.2722 12 27.6111 12Z" fill="#6A4C4C"/>
</svg>
