<svg width="40" height="40" viewBox="0 0 40 40" fill="none" xmlns="http://www.w3.org/2000/svg">
<mask id="mask0_283_1545" style="mask-type:luminance" maskUnits="userSpaceOnUse" x="0" y="0" width="40" height="40">
<path d="M20 39C22.4956 39.0031 24.9671 38.513 27.2727 37.558C29.5783 36.6029 31.6725 35.2017 33.4349 33.4349C35.2017 31.6725 36.6029 29.5783 37.558 27.2727C38.513 24.9671 39.0031 22.4956 39 20C39.0031 17.5044 38.513 15.0329 37.558 12.7273C36.6029 10.4217 35.2017 8.32752 33.4349 6.56511C31.6725 4.79826 29.5783 3.39707 27.2727 2.44203C24.9671 1.48699 22.4956 0.996937 20 1.00001C17.5044 0.996937 15.0329 1.48699 12.7273 2.44203C10.4217 3.39707 8.32752 4.79826 6.56511 6.56511C4.79826 8.32752 3.39707 10.4217 2.44203 12.7273C1.48699 15.0329 0.996937 17.5044 1.00001 20C0.996937 22.4956 1.48699 24.9671 2.44203 27.2727C3.39707 29.5783 4.79826 31.6725 6.56511 33.4349C8.32752 35.2017 10.4217 36.6029 12.7273 37.558C15.0329 38.513 17.5044 39.0031 20 39Z" fill="white" stroke="white" stroke-width="2" stroke-linejoin="round"/>
<path d="M12.3999 19.9998L18.0999 25.6998L29.4999 14.2998" stroke="black" stroke-width="2" stroke-linecap="round" stroke-linejoin="round"/>
</mask>
<g mask="url(#mask0_283_1545)">
<path d="M-2.7998 -2.7998H42.8002V42.8002H-2.7998V-2.7998Z" fill="#9A8C79"/>
</g>
</svg>
