<svg width="40" height="40" viewBox="0 0 40 40" fill="none" xmlns="http://www.w3.org/2000/svg">
<mask id="mask0_283_1545" style="mask-type:luminance" maskUnits="userSpaceOnUse" x="0" y="0" width="40" height="40">
<path d="M20 39C22.4956 39.0031 24.9671 38.513 27.2727 37.558C29.5783 36.6029 31.6725 35.2017 33.4349 33.4349C35.2017 31.6725 36.6029 29.5783 37.558 27.2727C38.513 24.9671 39.0031 22.4956 39 20C39.0031 17.5044 38.513 15.0329 37.558 12.7273C36.6029 10.4217 35.2017 8.32752 33.4349 6.56511C31.6725 4.79826 29.5783 3.39707 27.2727 2.44203C24.9671 1.48699 22.4956 0.996937 20 1.00001C17.5044 0.996937 15.0329 1.48699 12.7273 2.44203C10.4217 3.39707 8.32752 4.79826 6.56511 6.56511C4.79826 8.32752 3.39707 10.4217 2.44203 12.7273C1.48699 15.0329 0.996937 17.5044 1.00001 20C0.996937 22.4956 1.48699 24.9671 2.44203 27.2727C3.39707 29.5783 4.79826 31.6725 6.56511 33.4349C8.32752 35.2017 10.4217 36.6029 12.7273 37.558C15.0329 38.513 17.5044 39.0031 20 39Z" fill="white" stroke="white" stroke-width="2" stroke-linejoin="round"/>
<path fill-rule="evenodd" clip-rule="evenodd" d="M30.5499 13.4397C30.8311 13.721 30.9891 14.1024 30.9891 14.5002C30.9891 14.8979 30.8311 15.2794 30.5499 15.5607L19.3069 26.8037C19.1584 26.9523 18.982 27.0702 18.7878 27.1506C18.5937 27.231 18.3856 27.2724 18.1754 27.2724C17.9653 27.2724 17.7572 27.231 17.5631 27.1506C17.3689 27.0702 17.1925 26.9523 17.0439 26.8037L11.4579 21.2187C11.3147 21.0803 11.2004 20.9148 11.1218 20.7318C11.0432 20.5488 11.0018 20.352 11.0001 20.1528C10.9983 19.9536 11.0363 19.7561 11.1117 19.5717C11.1871 19.3874 11.2985 19.2199 11.4393 19.0791C11.5802 18.9382 11.7477 18.8269 11.932 18.7514C12.1163 18.676 12.3139 18.6381 12.513 18.6398C12.7122 18.6415 12.909 18.6829 13.092 18.7615C13.275 18.8401 13.4406 18.9544 13.5789 19.0977L18.1749 23.6937L28.4279 13.4397C28.5672 13.3003 28.7326 13.1897 28.9147 13.1143C29.0967 13.0388 29.2919 13 29.4889 13C29.686 13 29.8811 13.0388 30.0632 13.1143C30.2452 13.1897 30.4106 13.3003 30.5499 13.4397Z" fill="black"/>
</mask>
<g mask="url(#mask0_283_1545)">
<path d="M-2.80008 -2.80008C9.792 -15.3922 30.2078 -15.3922 42.7999 -2.80008C55.392 9.792 55.392 30.2078 42.7999 42.7999C30.2078 55.392 9.792 55.392 -2.80008 42.7999C-15.3922 30.2078 -15.3922 9.792 -2.80008 -2.80008Z" fill="#9A8C79"/>
</g>
</svg>
