<svg width="68" height="33" viewBox="0 0 68 33" fill="none" xmlns="http://www.w3.org/2000/svg">
<path d="M0 10C0 4.47715 4.47715 0 10 0H58C63.5228 0 68 4.47715 68 10V23C68 28.5228 63.5228 33 58 33H10C4.47715 33 0 28.5228 0 23V10Z" fill="#F4E7C8"/>
<path d="M18.26 10.4C18.4333 10.32 18.5533 10.2867 18.62 10.3C18.6867 10.3 18.8133 10.36 19 10.48C19.2667 10.6667 19.4133 10.82 19.44 10.94C19.48 11.0467 19.44 11.2533 19.32 11.56C19.2133 11.8267 19.16 11.9867 19.16 12.04C19.16 12.1067 19.4667 12.2667 20.08 12.52C20.6933 12.76 21.0867 12.88 21.26 12.88C21.34 12.88 21.4467 12.9267 21.58 13.02C21.8867 13.2067 22.1133 13.3 22.26 13.3C22.42 13.3 22.5533 13.4133 22.66 13.64C22.78 13.8667 22.82 14.1 22.78 14.34C22.74 14.6067 22.5133 14.8267 22.1 15C21.7 15.16 21.38 15.16 21.14 15C21.02 14.92 20.8467 14.8533 20.62 14.8C20.3133 14.7333 20.08 14.6333 19.92 14.5C19.76 14.3667 19.5067 14.2267 19.16 14.08C18.96 14 18.8067 13.9 18.7 13.78C18.5933 13.6333 18.4933 13.5533 18.4 13.54C18.2933 13.5133 18.14 13.4467 17.94 13.34C17.7533 13.2467 17.6 13.2133 17.48 13.24C17.3733 13.2533 17.2667 13.34 17.16 13.5C17.0667 13.6067 16.94 13.72 16.78 13.84C16.5933 13.96 16.2733 14.2133 15.82 14.6C15.38 14.9867 15.0267 15.32 14.76 15.6C14.56 15.8 14.3867 15.9067 14.24 15.92C14.0933 15.92 13.92 15.8267 13.72 15.64C13.48 15.4133 13.34 15.22 13.3 15.06C13.26 14.9 13.3133 14.7267 13.46 14.54C13.5667 14.4067 13.6467 14.2933 13.7 14.2C13.74 14.12 13.84 14.04 14 13.96C14.1733 13.8667 14.3133 13.7667 14.42 13.66C14.5533 13.5267 14.7 13.4 14.86 13.28C15.2867 12.96 15.8867 12.4067 16.66 11.62C16.86 11.42 17.0667 11.2667 17.28 11.16C17.5067 11.0533 17.68 10.92 17.8 10.76C17.9333 10.6133 18.0867 10.4933 18.26 10.4ZM13.16 17.64C13.3067 17.5467 13.9867 17.5467 15.2 17.64C15.7733 17.68 16.22 17.6933 16.54 17.68C16.8733 17.68 17.1067 17.6933 17.24 17.72C17.36 17.7467 17.5067 17.7333 17.68 17.68C17.84 17.6267 18.2133 17.6333 18.8 17.7C19.2533 17.7533 19.58 17.7867 19.78 17.8C19.9933 17.8 20.44 17.7867 21.12 17.76C22.5733 17.7067 23.34 17.74 23.42 17.86C23.7 18.26 23.8467 18.5067 23.86 18.6C23.8733 18.8 23.8267 18.9667 23.72 19.1C23.6133 19.22 23.4533 19.2933 23.24 19.32C23.0533 19.3467 22.8933 19.3933 22.76 19.46C22.64 19.5133 22.5467 19.54 22.48 19.54C22.4133 19.54 22.28 19.5133 22.08 19.46C21.8667 19.4067 21.66 19.3933 21.46 19.42C21.2867 19.4333 21.06 19.4133 20.78 19.36C20.5267 19.32 20.14 19.3067 19.62 19.32C19.1133 19.3333 18.84 19.3733 18.8 19.44C18.7333 19.5067 18.6667 20.38 18.6 22.06C18.5733 22.6467 18.54 23.0067 18.5 23.14C18.4733 23.2733 18.38 23.3867 18.22 23.48C17.9933 23.6133 17.7933 23.6533 17.62 23.6C17.46 23.5467 17.2733 23.3933 17.06 23.14C16.9933 23.0467 16.94 22.8333 16.9 22.5C16.86 22.1533 16.8667 21.9067 16.92 21.76C16.96 21.6667 17 21.3333 17.04 20.76C17.0667 20.2 17.0933 19.84 17.12 19.68C17.1733 19.2533 16.5 19.1333 15.1 19.32C14.8067 19.36 14.5467 19.36 14.32 19.32C14.0933 19.2667 13.9 19.26 13.74 19.3C13.42 19.3533 13.1667 19.32 12.98 19.2C12.9133 19.16 12.8133 19.0333 12.68 18.82C12.56 18.5933 12.5 18.44 12.5 18.36C12.5 18.3067 12.58 18.1867 12.74 18C12.9133 17.8133 13.0533 17.6933 13.16 17.64ZM27.1033 9.86C27.2633 9.82 27.5833 9.8 28.0633 9.8C28.5433 9.78667 28.8633 9.80667 29.0233 9.86C29.1433 9.9 29.2499 9.9 29.3433 9.86C29.5966 9.76667 29.8499 9.80667 30.1033 9.98C30.2366 10.0733 30.3366 10.12 30.4033 10.12C30.5766 10.12 30.7566 10.3467 30.9433 10.8C31.1433 11.2533 31.2099 11.5933 31.1433 11.82C31.0899 11.9933 31.0433 12.1667 31.0033 12.34C30.9499 12.5533 30.8566 12.7267 30.7233 12.86C30.2566 13.3267 29.9899 13.6333 29.9233 13.78C29.8699 13.9133 29.9499 14.0867 30.1633 14.3C30.3499 14.5 30.4966 14.7 30.6033 14.9C30.7366 15.1267 30.8966 15.2733 31.0833 15.34C31.1099 15.3533 31.1366 15.4533 31.1633 15.64C31.2033 15.8133 31.2099 15.9467 31.1833 16.04C31.1699 16.1467 31.0633 16.2933 30.8633 16.48C30.6633 16.6533 30.5166 16.7467 30.4233 16.76C30.3299 16.7733 30.2099 16.7333 30.0633 16.64C29.9299 16.5467 29.7699 16.4667 29.5833 16.4C29.4233 16.36 29.3099 16.3067 29.2433 16.24C29.1766 16.1733 29.0633 15.9933 28.9033 15.7C28.5566 15.1 28.2033 14.9267 27.8433 15.18C27.7899 15.22 27.6033 15.3533 27.2833 15.58C26.9899 15.78 26.7899 15.9533 26.6833 16.1C26.5499 16.2333 26.4299 16.3333 26.3233 16.4C25.9099 16.5733 25.6499 16.66 25.5433 16.66C25.4366 16.66 25.2966 16.5667 25.1233 16.38C24.8966 16.1133 24.8099 15.8333 24.8633 15.54C24.9299 15.2333 25.1099 15.04 25.4033 14.96C25.5499 14.92 25.7166 14.82 25.9033 14.66C26.1166 14.4867 26.3966 14.28 26.7433 14.04C27.5566 13.4667 28.0699 13.02 28.2833 12.7C28.3766 12.5667 28.4433 12.48 28.4833 12.44C28.5366 12.4 28.6166 12.3667 28.7233 12.34C28.8833 12.3 29.0433 12.2 29.2033 12.04C29.3633 11.8667 29.4433 11.7067 29.4433 11.56C29.4433 11.4 29.1899 11.3067 28.6833 11.28C28.1766 11.24 27.7566 11.2933 27.4233 11.44C27.2633 11.5067 27.0833 11.52 26.8833 11.48C26.6699 11.44 26.5299 11.4333 26.4633 11.46C26.1299 11.62 25.8633 11.5867 25.6633 11.36C25.4633 11.12 25.4433 10.82 25.6033 10.46C25.6433 10.38 25.7833 10.28 26.0233 10.16C26.2766 10.0267 26.4766 9.96 26.6233 9.96C26.7566 9.96 26.9166 9.92667 27.1033 9.86ZM34.2633 10.14C34.4366 10.0867 34.6033 10.1133 34.7633 10.22C34.8566 10.2867 34.9633 10.34 35.0833 10.38C35.2433 10.4333 35.3433 10.62 35.3833 10.94C35.4366 11.26 35.4166 11.64 35.3233 12.08C35.2566 12.36 35.2166 12.8133 35.2033 13.44C35.1899 14.0533 35.1633 14.4133 35.1233 14.52C35.0966 14.6133 35.1099 14.7867 35.1633 15.04C35.2166 15.2933 35.2233 15.5333 35.1833 15.76C35.1433 16 35.1233 16.22 35.1233 16.42C35.1233 16.74 35.0166 16.9267 34.8033 16.98C34.6833 17.0067 34.5766 17.0533 34.4833 17.12C34.2833 17.2533 34.0899 17.2667 33.9033 17.16C33.7299 17.04 33.6299 16.8467 33.6033 16.58C33.5899 16.3267 33.5633 16.1467 33.5233 16.04C33.4833 15.9333 33.4766 15.6267 33.5033 15.12C33.5299 14.6133 33.5166 14.3 33.4633 14.18C33.4099 14.0467 33.2499 13.98 32.9833 13.98C32.7566 13.98 32.5366 13.92 32.3233 13.8C32.1099 13.6667 31.9699 13.5267 31.9033 13.38C31.8499 13.2333 31.8766 13.1 31.9833 12.98C32.0099 12.9533 32.1099 12.86 32.2833 12.7C32.4299 12.5667 32.5366 12.48 32.6033 12.44C32.6833 12.4 32.8233 12.36 33.0233 12.32C33.3566 12.2533 33.5499 12.0933 33.6033 11.84C33.6299 11.72 33.6633 11.6067 33.7033 11.5C33.7433 11.38 33.7633 11.1933 33.7633 10.94C33.7633 10.4867 33.9299 10.22 34.2633 10.14ZM28.7233 18.02C28.9899 17.98 29.6033 17.96 30.5633 17.96C31.3233 17.9733 31.8166 17.9933 32.0433 18.02C32.2699 18.0467 32.5099 18.1267 32.7633 18.26C32.9233 18.3533 33.0499 18.4 33.1433 18.4C33.3699 18.4 33.5899 18.5333 33.8033 18.8C33.9233 18.9467 34.0233 19.04 34.1033 19.08C34.2499 19.16 34.3699 19.4067 34.4633 19.82C34.4899 19.9933 34.5366 20.1667 34.6033 20.34C34.7499 20.6867 34.7966 21.0467 34.7433 21.42C34.7033 21.78 34.5833 22.0733 34.3833 22.3C34.2233 22.4867 34.1433 22.6333 34.1433 22.74C34.1433 23.1533 33.9299 23.36 33.5033 23.36C33.3433 23.36 33.2099 23.4 33.1033 23.48C32.6499 23.8133 31.9566 23.9867 31.0233 24C30.5833 24.0133 30.2833 24.0333 30.1233 24.06C29.9633 24.0867 29.8299 24.0733 29.7233 24.02C29.6166 23.9533 29.4899 23.9333 29.3433 23.96C29.1833 23.9733 28.9299 23.9067 28.5833 23.76C27.7299 23.3467 27.1899 22.92 26.9633 22.48C26.8299 22.2533 26.7166 22.08 26.6233 21.96C26.1966 21.4267 26.1366 20.7667 26.4433 19.98C26.5633 19.6733 26.6699 19.3733 26.7633 19.08C26.8433 18.7867 26.9433 18.58 27.0633 18.46C27.1833 18.34 27.3233 18.2933 27.4833 18.32C27.6033 18.3467 27.7699 18.3133 27.9833 18.22C28.1699 18.1267 28.4166 18.06 28.7233 18.02ZM32.0033 19.64C31.6699 19.52 31.4166 19.5133 31.2433 19.62C31.1766 19.66 31.0299 19.6667 30.8033 19.64C30.5899 19.6267 30.3899 19.6333 30.2033 19.66C30.1099 19.6867 29.8699 19.7267 29.4833 19.78C29.0699 19.8467 28.7766 19.9333 28.6033 20.04C28.4433 20.1333 28.3633 20.2533 28.3633 20.4C28.3633 20.4933 28.3099 20.6 28.2033 20.72C28.0699 20.8667 28.0166 21 28.0433 21.12C28.0833 21.2267 28.2166 21.42 28.4433 21.7C28.6699 21.9933 28.8566 22.1867 29.0033 22.28C29.1499 22.3733 29.3299 22.42 29.5433 22.42C29.7033 22.42 29.8699 22.4467 30.0433 22.5C30.4699 22.62 30.8433 22.6467 31.1633 22.58C31.6033 22.4867 31.8966 22.4133 32.0433 22.36C32.2033 22.2933 32.3566 22.1933 32.5033 22.06C32.7166 21.8733 32.8366 21.7733 32.8633 21.76C32.9833 21.6533 33.0433 21.4667 33.0433 21.2C33.0566 20.9333 33.0099 20.7467 32.9033 20.64C32.6766 20.44 32.5966 20.2867 32.6633 20.18C32.7033 20.1 32.6566 20.0133 32.5233 19.92C32.4033 19.8133 32.2299 19.72 32.0033 19.64Z" fill="#8A7C70"/>
<path d="M48.0052 12.6899C48.3957 12.2993 49.0289 12.2994 49.4194 12.6899L51.3098 14.5804C51.7003 14.9709 51.7003 15.6041 51.3098 15.9946L44.5975 22.7071C44.41 22.8946 44.1556 23 43.8904 23H42C41.4477 23 41 22.5523 41 22V20.1088C41 19.8435 41.1054 19.5892 41.2929 19.4016L48.0052 12.6899ZM50.5207 11.5875C50.1303 11.197 50.1304 10.5639 50.5208 10.1734L51.4661 9.22809C51.6122 9.08205 51.8103 9 52.0169 9C52.2235 9 52.4216 9.08205 52.5677 9.22809L54.7715 11.4312C54.844 11.5036 54.9014 11.5895 54.9406 11.6841C54.9798 11.7786 55 11.88 55 11.9824C55 12.0848 54.9798 12.1861 54.9406 12.2807C54.9014 12.3753 54.844 12.4612 54.7715 12.5336L53.8256 13.479C53.4351 13.8694 52.8019 13.8693 52.4115 13.4788L50.5207 11.5875Z" fill="#8A7C70"/>
</svg>
