<svg width="27" height="30" viewBox="0 0 27 30" fill="none" xmlns="http://www.w3.org/2000/svg">
<path d="M0 25.9389V11.0126C0 10.4874 0.117752 9.98983 0.353256 9.51993C0.588761 9.05002 0.913271 8.66304 1.32679 8.35899L11.2777 0.895815C11.8582 0.453553 12.5215 0.232422 13.2679 0.232422C14.0142 0.232422 14.6776 0.453553 15.258 0.895815L25.2089 8.35899C25.6236 8.66304 25.9486 9.05002 26.1841 9.51993C26.4196 9.98983 26.5368 10.4874 26.5357 11.0126V25.9389C26.5357 26.8511 26.2107 27.6322 25.5605 28.2823C24.9104 28.9325 24.1298 29.257 23.2188 29.2559H18.2433C17.7734 29.2559 17.3798 29.0967 17.0625 28.7782C16.7451 28.4598 16.5859 28.0662 16.5848 27.5974V19.305C16.5848 18.8351 16.4256 18.4415 16.1072 18.1241C15.7888 17.8068 15.3951 17.6476 14.9263 17.6465H11.6094C11.1395 17.6465 10.7459 17.8057 10.4285 18.1241C10.1112 18.4426 9.952 18.8362 9.9509 19.305V27.5974C9.9509 28.0673 9.79168 28.4615 9.47325 28.7799C9.15482 29.0983 8.76121 29.257 8.29241 29.2559H3.31697C2.4048 29.2559 1.62421 28.9314 0.975187 28.2823C0.326168 27.6333 0.00110565 26.8522 0 25.9389Z" fill="#CDB9AD"/>
</svg>
