<svg width="13" height="13" viewBox="0 0 13 13" fill="none" xmlns="http://www.w3.org/2000/svg">
<path d="M11.9163 4.3335C11.9163 4.2352 11.8895 4.13877 11.8389 4.05454L10.3715 1.60891C10.2748 1.44904 10.1387 1.31672 9.97606 1.2247C9.81346 1.13269 9.62992 1.08406 9.44309 1.0835H3.55626C3.17817 1.0835 2.8223 1.285 2.62784 1.60945L1.16047 4.05454C1.10981 4.13877 1.08304 4.2352 1.08301 4.3335C1.08301 4.87787 1.29209 5.37025 1.62467 5.75158V10.8335C1.62467 10.9772 1.68174 11.1149 1.78332 11.2165C1.88491 11.3181 2.02268 11.3752 2.16634 11.3752H6.49967C6.64333 11.3752 6.78111 11.3181 6.88269 11.2165C6.98427 11.1149 7.04134 10.9772 7.04134 10.8335V8.12516H9.20801V10.8335C9.20801 10.9772 9.26508 11.1149 9.36666 11.2165C9.46824 11.3181 9.60602 11.3752 9.74967 11.3752H10.833C10.9767 11.3752 11.1144 11.3181 11.216 11.2165C11.3176 11.1149 11.3747 10.9772 11.3747 10.8335V5.75158C11.7073 5.37025 11.9163 4.87787 11.9163 4.3335ZM10.8243 4.46945C10.7912 4.73112 10.6638 4.97173 10.466 5.14614C10.2681 5.32056 10.0134 5.4168 9.74967 5.41683C9.15222 5.41683 8.66634 4.93095 8.66634 4.3335C8.66634 4.29666 8.6528 4.26416 8.64522 4.2295L8.65605 4.22733L8.24384 2.16683H9.44309L10.8243 4.46945ZM5.42013 4.3687L5.85997 2.16683H7.13884L7.57922 4.3687C7.56026 4.94991 7.08467 5.41683 6.49967 5.41683C5.91467 5.41683 5.43909 4.94991 5.42013 4.3687ZM3.55626 2.16683H4.75551L4.34384 4.22733L4.35467 4.2295C4.34655 4.26416 4.33301 4.29666 4.33301 4.3335C4.33301 4.93095 3.84713 5.41683 3.24967 5.41683C2.98592 5.4168 2.73124 5.32056 2.53338 5.14614C2.33553 4.97173 2.20811 4.73112 2.17501 4.46945L3.55626 2.16683ZM5.41634 8.66683H3.24967V7.04183H5.41634V8.66683Z" fill="#6A4C4C"/>
</svg>
