<svg width="30" height="30" viewBox="0 0 30 30" fill="none" xmlns="http://www.w3.org/2000/svg">
<path d="M13.6265 0.199219H16.8989C17.7141 0.199219 18.4963 0.523175 19.0728 1.09961C19.649 1.67596 19.9731 2.45743 19.9731 3.27246V10.0176H26.7173C27.5325 10.0176 28.3147 10.3415 28.8911 10.918C29.4673 11.4943 29.7915 12.2758 29.7915 13.0908V16.3633C29.7915 17.1784 29.4675 17.9607 28.8911 18.5371C28.3147 19.1135 27.5325 19.4375 26.7173 19.4375H19.9731V26.1816C19.9731 26.9968 19.6492 27.779 19.0728 28.3555C18.4963 28.9319 17.7141 29.2559 16.8989 29.2559H13.6265C12.8114 29.2558 12.03 28.9317 11.4536 28.3555C10.8772 27.779 10.5532 26.9968 10.5532 26.1816V19.4375H3.80811C2.99307 19.4374 2.21161 19.1134 1.63525 18.5371C1.05882 17.9607 0.734863 17.1785 0.734863 16.3633V13.0908C0.734899 12.2757 1.0589 11.4944 1.63525 10.918C2.21162 10.3416 2.993 10.0177 3.80811 10.0176H10.5532V3.27246C10.5533 2.45736 10.8772 1.67598 11.4536 1.09961C12.03 0.523251 12.8113 0.199255 13.6265 0.199219Z" fill="#CDB9AD" stroke="#CDB9AD" stroke-width="0.398036"/>
</svg>
