<svg width="113" height="176" viewBox="0 0 113 176" fill="none" xmlns="http://www.w3.org/2000/svg">
<rect x="45" y="23" width="23" height="4" fill="#424242"/>
<rect x="45" y="16" width="23" height="2" fill="#424242"/>
<path d="M41.6667 13H26.8333C22.8993 13 19.1264 14.7442 16.3446 17.849C13.5628 20.9538 12 25.1648 12 29.5556V145.444C12 149.835 13.5628 154.046 16.3446 157.151C19.1264 160.256 22.8993 162 26.8333 162H86.1667C90.1007 162 93.8736 160.256 96.6554 157.151C99.4372 154.046 101 149.835 101 145.444V29.5556C101 25.1648 99.4372 20.9538 96.6554 17.849C93.8736 14.7442 90.1007 13 86.1667 13H71.3333M41.6667 13H71.3333H41.6667ZM41.6667 13L41.6667 20L41.6667 13ZM71.3333 13L71.3333 20L71.3333 13ZM71.3333 20C71.3333 22.1954 71.3909 26.4476 70 28C68.6091 29.5524 65.8837 29.5556 63.9167 29.5556H49.0833C47.1163 29.5556 44.3909 29.0524 43 27.5C41.6091 25.9476 41.6667 22.1954 41.6667 20M71.3333 20H41.6667H71.3333Z" fill="#FFF7EC"/>
<path d="M41.6667 13H26.8333C22.8993 13 19.1264 14.7442 16.3446 17.849C13.5628 20.9538 12 25.1648 12 29.5556V145.444C12 149.835 13.5628 154.046 16.3446 157.151C19.1264 160.256 22.8993 162 26.8333 162H86.1667C90.1007 162 93.8736 160.256 96.6554 157.151C99.4372 154.046 101 149.835 101 145.444V29.5556C101 25.1648 99.4372 20.9538 96.6554 17.849C93.8736 14.7442 90.1007 13 86.1667 13H71.3333M41.6667 13H71.3333M41.6667 13L41.6667 20M71.3333 13L71.3333 20M41.6667 20C41.6667 22.1954 41.6091 25.9476 43 27.5C44.3909 29.0524 47.1163 29.5556 49.0833 29.5556H63.9167C65.8837 29.5556 68.6091 29.5524 70 28C71.3909 26.4476 71.3333 22.1954 71.3333 20M41.6667 20H71.3333" stroke="#424242" stroke-width="7" stroke-linecap="round" stroke-linejoin="round"/>
<rect x="22" y="108" width="70" height="18" rx="2" fill="#F5E3CA"/>
<rect x="25" y="110" width="14" height="14" rx="2" fill="#EBD1AE"/>
<path d="M37.2066 117V121.582C37.2066 121.885 37.0969 122.177 36.9016 122.392C36.7063 122.606 36.4414 122.727 36.1653 122.727H27.8347C27.5585 122.727 27.2936 122.606 27.0984 122.392C26.9031 122.177 26.7934 121.885 26.7934 121.582V117C26.6553 117 26.5228 116.939 26.4252 116.832C26.3276 116.725 26.2727 116.579 26.2727 116.427V114.709C26.2727 114.405 26.3824 114.114 26.5777 113.899C26.773 113.684 27.0379 113.563 27.314 113.563H28.9645C28.9057 113.379 28.8757 113.186 28.876 112.991C28.876 112.535 29.0406 112.098 29.3335 111.776C29.6264 111.453 30.0237 111.272 30.438 111.272C30.9587 111.272 31.4168 111.559 31.7032 111.983V111.977L32 112.418L32.2968 111.977V111.983C32.5831 111.559 33.0413 111.272 33.562 111.272C33.9762 111.272 34.3735 111.453 34.6664 111.776C34.9594 112.098 35.1239 112.535 35.1239 112.991C35.1242 113.186 35.0943 113.379 35.0354 113.563H36.6859C36.9621 113.563 37.227 113.684 37.4223 113.899C37.6175 114.114 37.7272 114.405 37.7272 114.709V116.427C37.7272 116.579 37.6724 116.725 37.5748 116.832C37.4771 116.939 37.3447 117 37.2066 117ZM27.8347 121.582H31.4793V117H27.8347V121.582ZM36.1653 121.582V117H32.5206V121.582H36.1653ZM30.438 112.418C30.2999 112.418 30.1675 112.478 30.0698 112.586C29.9722 112.693 29.9173 112.839 29.9173 112.991C29.9173 113.143 29.9722 113.288 30.0698 113.396C30.1675 113.503 30.2999 113.563 30.438 113.563C30.5761 113.563 30.7085 113.503 30.8062 113.396C30.9038 113.288 30.9587 113.143 30.9587 112.991C30.9587 112.839 30.9038 112.693 30.8062 112.586C30.7085 112.478 30.5761 112.418 30.438 112.418ZM33.562 112.418C33.4239 112.418 33.2914 112.478 33.1938 112.586C33.0962 112.693 33.0413 112.839 33.0413 112.991C33.0413 113.143 33.0962 113.288 33.1938 113.396C33.2914 113.503 33.4239 113.563 33.562 113.563C33.7 113.563 33.8325 113.503 33.9301 113.396C34.0278 113.288 34.0826 113.143 34.0826 112.991C34.0826 112.839 34.0278 112.693 33.9301 112.586C33.8325 112.478 33.7 112.418 33.562 112.418ZM27.314 114.709V115.854H31.4793V114.709H27.314ZM32.5206 114.709V115.854H36.6859V114.709H32.5206Z" fill="black"/>
<rect x="22" y="130" width="70" height="18" rx="2" fill="#F5E3CA"/>
<rect x="25" y="132" width="14" height="14" rx="2" fill="#EBD1AE"/>
<path d="M37.2066 139V143.582C37.2066 143.885 37.0969 144.177 36.9016 144.392C36.7063 144.606 36.4414 144.727 36.1653 144.727H27.8347C27.5585 144.727 27.2936 144.606 27.0984 144.392C26.9031 144.177 26.7934 143.885 26.7934 143.582V139C26.6553 139 26.5228 138.939 26.4252 138.832C26.3276 138.725 26.2727 138.579 26.2727 138.427V136.709C26.2727 136.405 26.3824 136.114 26.5777 135.899C26.773 135.684 27.0379 135.563 27.314 135.563H28.9645C28.9057 135.379 28.8757 135.186 28.876 134.991C28.876 134.535 29.0406 134.098 29.3335 133.776C29.6264 133.453 30.0237 133.272 30.438 133.272C30.9587 133.272 31.4168 133.559 31.7032 133.983V133.977L32 134.418L32.2968 133.977V133.983C32.5831 133.559 33.0413 133.272 33.562 133.272C33.9762 133.272 34.3735 133.453 34.6664 133.776C34.9594 134.098 35.1239 134.535 35.1239 134.991C35.1242 135.186 35.0943 135.379 35.0354 135.563H36.6859C36.9621 135.563 37.227 135.684 37.4223 135.899C37.6175 136.114 37.7272 136.405 37.7272 136.709V138.427C37.7272 138.579 37.6724 138.725 37.5748 138.832C37.4771 138.939 37.3447 139 37.2066 139ZM27.8347 143.582H31.4793V139H27.8347V143.582ZM36.1653 143.582V139H32.5206V143.582H36.1653ZM30.438 134.418C30.2999 134.418 30.1675 134.478 30.0698 134.586C29.9722 134.693 29.9173 134.839 29.9173 134.991C29.9173 135.143 29.9722 135.288 30.0698 135.396C30.1675 135.503 30.2999 135.563 30.438 135.563C30.5761 135.563 30.7085 135.503 30.8062 135.396C30.9038 135.288 30.9587 135.143 30.9587 134.991C30.9587 134.839 30.9038 134.693 30.8062 134.586C30.7085 134.478 30.5761 134.418 30.438 134.418ZM33.562 134.418C33.4239 134.418 33.2914 134.478 33.1938 134.586C33.0962 134.693 33.0413 134.839 33.0413 134.991C33.0413 135.143 33.0962 135.288 33.1938 135.396C33.2914 135.503 33.4239 135.563 33.562 135.563C33.7 135.563 33.8325 135.503 33.9301 135.396C34.0278 135.288 34.0826 135.143 34.0826 134.991C34.0826 134.839 34.0278 134.693 33.9301 134.586C33.8325 134.478 33.7 134.418 33.562 134.418ZM27.314 136.709V137.854H31.4793V136.709H27.314ZM32.5206 136.709V137.854H36.6859V136.709H32.5206Z" fill="black"/>
<rect x="22" y="86" width="70" height="18" rx="2" fill="#F5E3CA"/>
<rect x="25" y="88" width="14" height="14" rx="2" fill="#EBD1AE"/>
<path d="M37.2066 94.9997V99.5816C37.2066 99.8853 37.0969 100.177 36.9016 100.392C36.7063 100.606 36.4414 100.727 36.1653 100.727H27.8347C27.5585 100.727 27.2936 100.606 27.0984 100.392C26.9031 100.177 26.7934 99.8853 26.7934 99.5816V94.9997C26.6553 94.9997 26.5228 94.9394 26.4252 94.832C26.3276 94.7246 26.2727 94.5789 26.2727 94.427V92.7088C26.2727 92.405 26.3824 92.1137 26.5777 91.8989C26.773 91.6841 27.0379 91.5634 27.314 91.5634H28.9645C28.9057 91.3794 28.8757 91.1857 28.876 90.9906C28.876 90.535 29.0406 90.0979 29.3335 89.7757C29.6264 89.4535 30.0237 89.2725 30.438 89.2725C30.9587 89.2725 31.4168 89.5588 31.7032 89.9826V89.9769L32 90.4179L32.2968 89.9769V89.9826C32.5831 89.5588 33.0413 89.2725 33.562 89.2725C33.9762 89.2725 34.3735 89.4535 34.6664 89.7757C34.9594 90.0979 35.1239 90.535 35.1239 90.9906C35.1242 91.1857 35.0943 91.3794 35.0354 91.5634H36.6859C36.9621 91.5634 37.227 91.6841 37.4223 91.8989C37.6175 92.1137 37.7272 92.405 37.7272 92.7088V94.427C37.7272 94.5789 37.6724 94.7246 37.5748 94.832C37.4771 94.9394 37.3447 94.9997 37.2066 94.9997ZM27.8347 99.5816H31.4793V94.9997H27.8347V99.5816ZM36.1653 99.5816V94.9997H32.5206V99.5816H36.1653ZM30.438 90.4179C30.2999 90.4179 30.1675 90.4783 30.0698 90.5857C29.9722 90.6931 29.9173 90.8387 29.9173 90.9906C29.9173 91.1425 29.9722 91.2882 30.0698 91.3956C30.1675 91.503 30.2999 91.5634 30.438 91.5634C30.5761 91.5634 30.7085 91.503 30.8062 91.3956C30.9038 91.2882 30.9587 91.1425 30.9587 90.9906C30.9587 90.8387 30.9038 90.6931 30.8062 90.5857C30.7085 90.4783 30.5761 90.4179 30.438 90.4179ZM33.562 90.4179C33.4239 90.4179 33.2914 90.4783 33.1938 90.5857C33.0962 90.6931 33.0413 90.8387 33.0413 90.9906C33.0413 91.1425 33.0962 91.2882 33.1938 91.3956C33.2914 91.503 33.4239 91.5634 33.562 91.5634C33.7 91.5634 33.8325 91.503 33.9301 91.3956C34.0278 91.2882 34.0826 91.1425 34.0826 90.9906C34.0826 90.8387 34.0278 90.6931 33.9301 90.5857C33.8325 90.4783 33.7 90.4179 33.562 90.4179ZM27.314 92.7088V93.8543H31.4793V92.7088H27.314ZM32.5206 92.7088V93.8543H36.6859V92.7088H32.5206Z" fill="black"/>
<rect x="22" y="64" width="70" height="18" rx="2" fill="#F5E3CA"/>
<rect x="25" y="66" width="14" height="14" rx="2" fill="#EBD1AE"/>
<path d="M37.2066 72.9997V77.5816C37.2066 77.8853 37.0969 78.1767 36.9016 78.3915C36.7063 78.6063 36.4414 78.727 36.1653 78.727H27.8347C27.5585 78.727 27.2936 78.6063 27.0984 78.3915C26.9031 78.1767 26.7934 77.8853 26.7934 77.5816V72.9997C26.6553 72.9997 26.5228 72.9394 26.4252 72.832C26.3276 72.7246 26.2727 72.5789 26.2727 72.427V70.7088C26.2727 70.405 26.3824 70.1137 26.5777 69.8989C26.773 69.6841 27.0379 69.5634 27.314 69.5634H28.9645C28.9057 69.3794 28.8757 69.1857 28.876 68.9906C28.876 68.535 29.0406 68.0979 29.3335 67.7757C29.6264 67.4535 30.0237 67.2725 30.438 67.2725C30.9587 67.2725 31.4168 67.5588 31.7032 67.9826V67.9769L32 68.4179L32.2968 67.9769V67.9826C32.5831 67.5588 33.0413 67.2725 33.562 67.2725C33.9762 67.2725 34.3735 67.4535 34.6664 67.7757C34.9594 68.0979 35.1239 68.535 35.1239 68.9906C35.1242 69.1857 35.0943 69.3794 35.0354 69.5634H36.6859C36.9621 69.5634 37.227 69.6841 37.4223 69.8989C37.6175 70.1137 37.7272 70.405 37.7272 70.7088V72.427C37.7272 72.5789 37.6724 72.7246 37.5748 72.832C37.4771 72.9394 37.3447 72.9997 37.2066 72.9997ZM27.8347 77.5816H31.4793V72.9997H27.8347V77.5816ZM36.1653 77.5816V72.9997H32.5206V77.5816H36.1653ZM30.438 68.4179C30.2999 68.4179 30.1675 68.4783 30.0698 68.5857C29.9722 68.6931 29.9173 68.8387 29.9173 68.9906C29.9173 69.1425 29.9722 69.2882 30.0698 69.3956C30.1675 69.503 30.2999 69.5634 30.438 69.5634C30.5761 69.5634 30.7085 69.503 30.8062 69.3956C30.9038 69.2882 30.9587 69.1425 30.9587 68.9906C30.9587 68.8387 30.9038 68.6931 30.8062 68.5857C30.7085 68.4783 30.5761 68.4179 30.438 68.4179ZM33.562 68.4179C33.4239 68.4179 33.2914 68.4783 33.1938 68.5857C33.0962 68.6931 33.0413 68.8387 33.0413 68.9906C33.0413 69.1425 33.0962 69.2882 33.1938 69.3956C33.2914 69.503 33.4239 69.5634 33.562 69.5634C33.7 69.5634 33.8325 69.503 33.9301 69.3956C34.0278 69.2882 34.0826 69.1425 34.0826 68.9906C34.0826 68.8387 34.0278 68.6931 33.9301 68.5857C33.8325 68.4783 33.7 68.4179 33.562 68.4179ZM27.314 70.7088V71.8543H31.4793V70.7088H27.314ZM32.5206 70.7088V71.8543H36.6859V70.7088H32.5206Z" fill="black"/>
<rect x="22" y="42" width="70" height="18" rx="2" fill="#F5E3CA"/>
<rect x="25" y="44" width="14" height="14" rx="2" fill="#EBD1AE"/>
<path d="M37.2066 50.9997V55.5816C37.2066 55.8853 37.0969 56.1767 36.9016 56.3915C36.7063 56.6063 36.4414 56.727 36.1653 56.727H27.8347C27.5585 56.727 27.2936 56.6063 27.0984 56.3915C26.9031 56.1767 26.7934 55.8853 26.7934 55.5816V50.9997C26.6553 50.9997 26.5228 50.9394 26.4252 50.832C26.3276 50.7246 26.2727 50.5789 26.2727 50.427V48.7088C26.2727 48.405 26.3824 48.1137 26.5777 47.8989C26.773 47.6841 27.0379 47.5634 27.314 47.5634H28.9645C28.9057 47.3794 28.8757 47.1857 28.876 46.9906C28.876 46.535 29.0406 46.0979 29.3335 45.7757C29.6264 45.4535 30.0237 45.2725 30.438 45.2725C30.9587 45.2725 31.4168 45.5588 31.7032 45.9826V45.9769L32 46.4179L32.2968 45.9769V45.9826C32.5831 45.5588 33.0413 45.2725 33.562 45.2725C33.9762 45.2725 34.3735 45.4535 34.6664 45.7757C34.9594 46.0979 35.1239 46.535 35.1239 46.9906C35.1242 47.1857 35.0943 47.3794 35.0354 47.5634H36.6859C36.9621 47.5634 37.227 47.6841 37.4223 47.8989C37.6175 48.1137 37.7272 48.405 37.7272 48.7088V50.427C37.7272 50.5789 37.6724 50.7246 37.5748 50.832C37.4771 50.9394 37.3447 50.9997 37.2066 50.9997ZM27.8347 55.5816H31.4793V50.9997H27.8347V55.5816ZM36.1653 55.5816V50.9997H32.5206V55.5816H36.1653ZM30.438 46.4179C30.2999 46.4179 30.1675 46.4783 30.0698 46.5857C29.9722 46.6931 29.9173 46.8387 29.9173 46.9906C29.9173 47.1425 29.9722 47.2882 30.0698 47.3956C30.1675 47.503 30.2999 47.5634 30.438 47.5634C30.5761 47.5634 30.7085 47.503 30.8062 47.3956C30.9038 47.2882 30.9587 47.1425 30.9587 46.9906C30.9587 46.8387 30.9038 46.6931 30.8062 46.5857C30.7085 46.4783 30.5761 46.4179 30.438 46.4179ZM33.562 46.4179C33.4239 46.4179 33.2914 46.4783 33.1938 46.5857C33.0962 46.6931 33.0413 46.8387 33.0413 46.9906C33.0413 47.1425 33.0962 47.2882 33.1938 47.3956C33.2914 47.503 33.4239 47.5634 33.562 47.5634C33.7 47.5634 33.8325 47.503 33.9301 47.3956C34.0278 47.2882 34.0826 47.1425 34.0826 46.9906C34.0826 46.8387 34.0278 46.6931 33.9301 46.5857C33.8325 46.4783 33.7 46.4179 33.562 46.4179ZM27.314 48.7088V49.8543H31.4793V48.7088H27.314ZM32.5206 48.7088V49.8543H36.6859V48.7088H32.5206Z" fill="black"/>
</svg>
