<svg width="22" height="13" viewBox="0 0 22 13" fill="none" xmlns="http://www.w3.org/2000/svg">
<path fill-rule="evenodd" clip-rule="evenodd" d="M0 1.18182C0 0.86838 0.124513 0.567781 0.346146 0.346147C0.56778 0.124513 0.868381 0 1.18182 0H20.0909C20.4043 0 20.7049 0.124513 20.9266 0.346147C21.1482 0.567781 21.2727 0.86838 21.2727 1.18182C21.2727 1.49526 21.1482 1.79586 20.9266 2.01749C20.7049 2.23912 20.4043 2.36364 20.0909 2.36364H1.18182C0.868381 2.36364 0.56778 2.23912 0.346146 2.01749C0.124513 1.79586 0 1.49526 0 1.18182ZM2.36364 6.5C2.36364 6.18656 2.48815 5.88596 2.70978 5.66433C2.93142 5.44269 3.23202 5.31818 3.54545 5.31818H17.7273C18.0407 5.31818 18.3413 5.44269 18.5629 5.66433C18.7846 5.88596 18.9091 6.18656 18.9091 6.5C18.9091 6.81344 18.7846 7.11404 18.5629 7.33567C18.3413 7.5573 18.0407 7.68182 17.7273 7.68182H3.54545C3.23202 7.68182 2.93142 7.5573 2.70978 7.33567C2.48815 7.11404 2.36364 6.81344 2.36364 6.5ZM5.90909 11.8182C5.90909 11.5047 6.0336 11.2041 6.25524 10.9825C6.47687 10.7609 6.77747 10.6364 7.09091 10.6364H14.1818C14.4953 10.6364 14.7959 10.7609 15.0175 10.9825C15.2391 11.2041 15.3636 11.5047 15.3636 11.8182C15.3636 12.1316 15.2391 12.4322 15.0175 12.6539C14.7959 12.8755 14.4953 13 14.1818 13H7.09091C6.77747 13 6.47687 12.8755 6.25524 12.6539C6.0336 12.4322 5.90909 12.1316 5.90909 11.8182Z" fill="#CAC2B7"/>
</svg>
