<svg width="33" height="33" viewBox="0 0 33 33" fill="none" xmlns="http://www.w3.org/2000/svg">
<path d="M0 16.5C0 7.3873 7.3873 0 16.5 0C25.6127 0 33 7.3873 33 16.5C33 25.6127 25.6127 33 16.5 33C7.3873 33 0 25.6127 0 16.5Z" fill="#F4E7C8"/>
<path d="M17.8333 11.9842V18.5665C17.8333 18.876 17.7104 19.1727 17.4916 19.3915C17.2728 19.6103 16.9761 19.7332 16.6667 19.7332C16.3572 19.7332 16.0605 19.6103 15.8417 19.3915C15.6229 19.1727 15.5 18.876 15.5 18.5665V11.9842L14.1922 13.2932C13.9731 13.5121 13.676 13.635 13.3663 13.6349C13.0566 13.6348 12.7597 13.5117 12.5408 13.2926C12.3218 13.0736 12.1989 12.7765 12.199 12.4668C12.1991 12.1571 12.3223 11.8601 12.5413 11.6412L15.8418 8.34304C15.9499 8.23432 16.0785 8.14805 16.22 8.08918C16.3616 8.03031 16.5134 8 16.6667 8C16.82 8 16.9718 8.03031 17.1133 8.08918C17.2549 8.14805 17.3834 8.23432 17.4915 8.34304L20.792 11.6424C20.9004 11.7508 20.9864 11.8796 21.045 12.0213C21.1036 12.163 21.1338 12.3149 21.1337 12.4682C21.1337 12.6216 21.1034 12.7734 21.0447 12.915C20.9859 13.0567 20.8999 13.1854 20.7914 13.2938C20.6829 13.4022 20.5542 13.4882 20.4125 13.5468C20.2708 13.6054 20.1189 13.6356 19.9656 13.6355C19.8122 13.6355 19.6604 13.6052 19.5188 13.5465C19.3771 13.4877 19.2484 13.4017 19.14 13.2932L17.8333 11.9842ZM12 15.0012C12.3094 15.0012 12.6062 15.1241 12.825 15.3429C13.0438 15.5617 13.1667 15.8585 13.1667 16.1679C13.1667 16.4773 13.0438 16.774 12.825 16.9928C12.6062 17.2116 12.3094 17.3345 12 17.3345H10.8333V22.0012H22.5V17.3345H21.3333C21.0239 17.3345 20.7272 17.2116 20.5084 16.9928C20.2896 16.774 20.1667 16.4773 20.1667 16.1679C20.1667 15.8585 20.2896 15.5617 20.5084 15.3429C20.7272 15.1241 21.0239 15.0012 21.3333 15.0012H22.5C23.1188 15.0012 23.7123 15.247 24.1499 15.6846C24.5875 16.1222 24.8333 16.7157 24.8333 17.3345V22.0012C24.8333 22.62 24.5875 23.2135 24.1499 23.6511C23.7123 24.0887 23.1188 24.3345 22.5 24.3345H10.8333C10.2145 24.3345 9.621 24.0887 9.18342 23.6511C8.74583 23.2135 8.5 22.62 8.5 22.0012V17.3345C8.5 16.7157 8.74583 16.1222 9.18342 15.6846C9.621 15.247 10.2145 15.0012 10.8333 15.0012H12Z" fill="#8A7C70"/>
</svg>
