<svg width="11" height="11" viewBox="0 0 11 11" fill="none" xmlns="http://www.w3.org/2000/svg">
<path d="M10.9951 1.42949C10.9945 1.05774 10.8467 0.701271 10.584 0.437745C10.3212 0.174219 9.96468 0.0249927 9.59213 0.0225767L6.13953 3.22418e-05C5.95278 -0.00122833 5.76764 0.0344869 5.59481 0.10511C5.42199 0.175734 5.26492 0.279862 5.1327 0.411468L0.414858 5.10634C0.283473 5.23711 0.179207 5.39244 0.108023 5.56344C0.0368386 5.73444 0.000131499 5.91777 3.52666e-07 6.10294C-0.000130794 6.28811 0.0363166 6.47148 0.107259 6.64259C0.178201 6.81369 0.282246 6.96916 0.413446 7.10012L3.9077 10.5875C4.17251 10.8516 4.53162 11 4.90606 11C5.2805 11 5.63961 10.8516 5.90442 10.5875L10.5863 5.91512C10.7176 5.78406 10.8218 5.62842 10.8928 5.45711C10.9638 5.28581 11.0002 5.10221 11 4.91683L10.9951 1.42949ZM8.1659 3.51978C7.97865 3.51978 7.79906 3.44555 7.66665 3.31343C7.53424 3.18131 7.45985 3.00212 7.45985 2.81527C7.45985 2.62842 7.53424 2.44922 7.66665 2.3171C7.79906 2.18498 7.97865 2.11075 8.1659 2.11075C8.35316 2.11075 8.53275 2.18498 8.66516 2.3171C8.79757 2.44922 8.87196 2.62842 8.87196 2.81527C8.87196 3.00212 8.79757 3.18131 8.66516 3.31343C8.53275 3.44555 8.35316 3.51978 8.1659 3.51978Z" fill="#6A4C4C"/>
</svg>
