<svg width="33" height="33" viewBox="0 0 33 33" fill="none" xmlns="http://www.w3.org/2000/svg">
<path d="M0 16.5C0 7.3873 7.3873 0 16.5 0C25.6127 0 33 7.3873 33 16.5C33 25.6127 25.6127 33 16.5 33C7.3873 33 0 25.6127 0 16.5Z" fill="#F4E7C8"/>
<path d="M22 11.1875V22.375C22 22.8154 21.8347 23.2324 21.5498 23.5352C21.2659 23.8367 20.8876 24 20.5 24H12.5C12.1124 24 11.7341 23.8367 11.4502 23.5352C11.1653 23.2324 11 22.8154 11 22.375V11.1875H22Z" fill="#914E4E" stroke="#914E4E"/>
<path d="M24.5 10.6875H22.5H24.5ZM8.5 10.6875H10.5H8.5ZM10.5 10.6875H22.5H10.5ZM10.5 10.6875V22.375C10.5 22.9386 10.7107 23.4791 11.0858 23.8776C11.4609 24.2761 11.9696 24.5 12.5 24.5H20.5C21.0304 24.5 21.5391 24.2761 21.9142 23.8776C22.2893 23.4791 22.5 22.9386 22.5 22.375V10.6875M13.5 10.1562C13.5 9.45177 13.7634 8.77614 14.2322 8.278C14.7011 7.77985 15.337 7.5 16 7.5H17C17.663 7.5 18.2989 7.77985 18.7678 8.278C19.2366 8.77614 19.5 9.45177 19.5 10.1562" fill="#914E4E"/>
<path d="M24.5 10.6875H22.5M22.5 10.6875H10.5M22.5 10.6875V22.375C22.5 22.9386 22.2893 23.4791 21.9142 23.8776C21.5391 24.2761 21.0304 24.5 20.5 24.5H12.5C11.9696 24.5 11.4609 24.2761 11.0858 23.8776C10.7107 23.4791 10.5 22.9386 10.5 22.375V10.6875M8.5 10.6875H10.5M13.5 10.1562C13.5 9.45177 13.7634 8.77614 14.2322 8.278C14.7011 7.77985 15.337 7.5 16 7.5H17C17.663 7.5 18.2989 7.77985 18.7678 8.278C19.2366 8.77614 19.5 9.45177 19.5 10.1562" stroke="#914E4E" stroke-width="2" stroke-linecap="round" stroke-linejoin="round"/>
<rect x="18" y="14" width="2" height="8" rx="1" fill="#F4E7C8"/>
<rect x="13" y="14" width="2" height="8" rx="1" fill="#F4E7C8"/>
</svg>
